# xmcd CD database file
#
# Track frame offsets:
#	150
#	17437
#	34407
#	53545
#	72785
#	94675
#	107855
#	127647
#	145657
#	164540
#	186072
#	216985
#
# Disc length: 3352 seconds
#
# Revision: 0
# Processed by: cddbd v1.4PL0 Copyright (c) Steve Scherf et al.
# Submitted via: CDex 1.50
#
DISCID=9c0d160c
DTITLE=Junkyardmen - Keep On Workin'
DYEAR=1999
DGENRE=Blues
TTITLE0=Keep on Workin'
TTITLE1=Tearsss
TTITLE2=Cadillac
TTITLE3=Arkansas Razorback
TTITLE4=High and Dry
TTITLE5=What Is Love?
TTITLE6=Love Bug
TTITLE7=(Oh No) Caught You In a Lie
TTITLE8=Hard as a Rock
TTITLE9=It's Gonna Be Alright
TTITLE10=Work It Out
TTITLE11=I Ain't Found Out Yet [Live]
EXTD=YEAR: 1999
EXTT0=
EXTT1=
EXTT2=
EXTT3=
EXTT4=
EXTT5=
EXTT6=
EXTT7=
EXTT8=
EXTT9=
EXTT10=
EXTT11=
PLAYORDER=
